<?xml version="1.0" standalone="no"?><!DOCTYPE svg PUBLIC "-//W3C//DTD SVG 1.1//EN" "http://www.w3.org/Graphics/SVG/1.1/DTD/svg11.dtd"><svg t="1595340897592" class="icon" viewBox="0 0 1024 1024" version="1.1" xmlns="http://www.w3.org/2000/svg" p-id="110866" xmlns:xlink="http://www.w3.org/1999/xlink" width="300" height="300"><defs><style type="text/css"></style></defs><path d="M861.65 191.74H543.6v-28.05c0-17.67-14.33-32-32-32s-32 14.33-32 32v28.05H162.24c-17.67 0-32 14.33-32 32v461.33c0 17.67 14.33 32 32 32h127.07L174.92 828.32c-12.67 12.32-12.95 32.58-0.63 45.25 6.27 6.45 14.6 9.69 22.94 9.69 8.04 0 16.09-3.01 22.31-9.06l160.62-156.21c0.31-0.3 0.61-0.61 0.9-0.92H643.9c0.29 0.31 0.59 0.62 0.9 0.92L805.43 874.2c6.22 6.05 14.27 9.06 22.31 9.06 8.34 0 16.67-3.24 22.94-9.69 12.32-12.67 12.04-32.93-0.63-45.25l-114.4-111.25h126c17.67 0 32-14.33 32-32V223.74c0-17.68-14.33-32-32-32z m-32 461.33h-635.4V255.74h635.4v397.33z" fill="#5469d4" p-id="110867"></path><path d="M462.1 541.89l115.1-66.45c12.12-7 12.12-24.5 0-31.5l-115.1-66.45c-12.12-7-27.28 1.75-27.28 15.75v132.91c0.01 13.99 15.16 22.74 27.28 15.74z" fill="#5469d4" p-id="110868"></path></svg>