<svg width="410" height="92" viewBox="0 0 410 92" fill="none" xmlns="http://www.w3.org/2000/svg">
<g clip-path="url(#clip0)">
<path d="M240.97 34.3355V80.8815C240.97 85.5318 237.2 89.3017 232.55 89.3017C227.9 89.3017 224.13 85.5318 224.13 80.8815V10C224.13 4.47715 228.607 0 234.13 0H235.517C238.916 0 242.083 1.7269 243.923 4.58468L276.41 55.0167C276.68 55.436 277.33 55.2499 277.33 54.7511V8.41142C277.33 3.76108 281.1 0 285.75 0C290.401 0 294.17 3.76983 294.17 8.42017V79.3017C294.17 84.8245 289.692 89.3017 284.169 89.3017H282.793C279.387 89.3017 276.218 87.5683 274.379 84.7017L241.891 34.0655C241.621 33.6452 240.97 33.8362 240.97 34.3355Z" fill="#161E2E"/>
<path fill-rule="evenodd" clip-rule="evenodd" d="M57.7832 78.9188V9.99998C57.7832 4.47714 62.2604 0 67.7832 0H97.5085C99.1004 0 100.679 0.29401 102.164 0.867238V0.867238C126.122 10.1143 126.527 43.8665 102.798 53.6857L99.7518 54.946C99.2404 55.1576 99.0861 55.8077 99.4479 56.2265L116.086 75.4918C119.09 78.9702 118.606 84.2474 115.019 87.1214V87.1214C111.619 89.8458 106.674 89.3969 103.82 86.1048L77.7795 56.0657C77.3996 55.6275 76.839 55.3378 76.2755 55.4747C75.3668 55.6954 74.7774 56.2954 74.7774 57.3725L74.6404 78.9188C74.6404 84.5322 71.8234 89.0828 66.21 89.0828C60.5965 89.0828 57.7832 84.5322 57.7832 78.9188ZM95.1017 18.0573L77.1813 17.924C75.778 17.924 74.6404 19.0616 74.6404 20.465V36.1146C74.6404 39.0606 76.7923 38.2519 83.0733 38.2519C89.3543 38.2519 95.1017 38.3853 95.1017 38.3853C97.872 38.3853 100.447 36.9582 101.915 34.6089C104.358 30.7008 104.358 25.7418 101.915 21.8337C100.447 19.4845 97.872 18.0573 95.1017 18.0573Z" fill="#161E2E"/>
<path d="M16.8535 57.9172V78.9172C16.8535 84.5315 14.0851 89.0828 8.42675 89.0828C2.76843 89.0828 0 84.5315 0 78.9172V15.3822C0 5.55713 8.0272 0 17.9293 0H42.162C46.8149 0 50.5873 3.77119 50.5887 8.42413C50.5902 13.0791 46.817 16.8535 42.162 16.8535H19.4148C18.0002 16.8535 16.8535 17.9913 16.8535 19.3949V33.5732C16.8535 34.9768 18.0002 36.1146 19.4148 36.1146H33.707C38.361 36.1146 42.1338 39.8874 42.1338 44.5414C42.1338 49.1954 38.3617 52.9681 33.7077 52.9681H19.4148C16.8535 52.9681 16.8535 56.5136 16.8535 57.9172Z" fill="#161E2E"/>
<path fill-rule="evenodd" clip-rule="evenodd" d="M171.162 16.8535C156.716 18.0573 145.882 28.8922 144.678 43.3378C143.474 57.7834 155.512 71.0255 171.162 72.2293C186.811 73.4331 201.257 58.9873 200.054 43.3376C198.85 27.6879 185.608 15.6497 171.162 16.8535ZM171.162 89.0828C195.761 89.0828 218.111 69.8216 216.907 43.3378C216.907 18.7383 195.761 0 171.162 0C148.289 0 127.824 18.738 127.824 43.3376C127.824 67.9371 146.562 89.0828 171.162 89.0828Z" fill="#161E2E"/>
<path d="M343.198 21.8877V79.0828C343.198 84.6056 338.721 89.0828 333.198 89.0828H331.53C326.007 89.0828 321.53 84.6056 321.53 79.0828V21.8877L311.174 21.8877C305.651 21.8877 301.174 17.4105 301.174 11.8877V10C301.174 4.47715 305.651 0 311.174 0L360.21 0C362.419 0 364.21 1.79087 364.21 4.00001V17.8877C364.21 20.0968 362.419 21.8877 360.21 21.8877L343.198 21.8877Z" fill="#B3AAFF"/>
<path d="M389.163 21.8877V79.0828C389.163 84.6056 384.686 89.0828 379.163 89.0828H376.837C371.314 89.0828 366.837 84.6056 366.837 79.0828V21.8877L356.7 21.8877C351.177 21.8877 346.7 17.4105 346.7 11.8877V10C346.7 4.47715 351.177 0 356.7 0L399.737 0C405.26 0 409.737 4.47716 409.737 10V11.8877C409.737 17.4105 405.26 21.8877 399.737 21.8877L389.163 21.8877Z" fill="#4F46E5"/>
</g>
<defs>
<clipPath id="clip0">
<rect width="409.737" height="92" fill="white"/>
</clipPath>
</defs>
</svg>
