<?xml version="1.0" standalone="no"?><!DOCTYPE svg PUBLIC "-//W3C//DTD SVG 1.1//EN" "http://www.w3.org/Graphics/SVG/1.1/DTD/svg11.dtd"><svg t="1595341149687" class="icon" viewBox="0 0 1024 1024" version="1.1" xmlns="http://www.w3.org/2000/svg" p-id="3664" xmlns:xlink="http://www.w3.org/1999/xlink" width="300" height="300"><defs><style type="text/css"></style></defs><path d="M837.818182 83.781818c54.30303 0 97.745455 43.442424 97.745454 97.745455v226.521212c0 54.30303-31.030303 128.775758-68.266666 166.012121L527.515152 912.290909c-37.236364 37.236364-99.29697 37.236364-138.084849 0L105.50303 628.363636c-37.236364-37.236364-37.236364-99.29697 0-138.084848L445.284848 152.048485c37.236364-37.236364 113.260606-68.266667 166.012122-68.266667H837.818182z m0 63.612121H611.29697c-37.236364 0-94.642424 24.824242-121.018182 49.648485L152.048485 536.824242c-12.412121 12.412121-12.412121 34.133333 0 46.545455l283.927273 283.927273c12.412121 12.412121 34.133333 12.412121 46.545454 0l338.230303-338.230303c26.375758-26.375758 49.648485-83.781818 49.648485-121.018182V179.975758c1.551515-17.066667-13.963636-32.581818-32.581818-32.581819zM634.569697 448.387879c35.684848 0 63.612121-29.478788 63.612121-63.612121s-29.478788-63.612121-63.612121-63.612122-63.612121 29.478788-63.612121 63.612122 27.927273 63.612121 63.612121 63.612121z m0 63.612121c-71.369697 0-128.775758-57.406061-128.775758-128.775758s57.406061-128.775758 128.775758-128.775757 128.775758 57.406061 128.775758 128.775757-57.406061 128.775758-128.775758 128.775758z" p-id="3665" fill="#5469d4"></path></svg>