<?xml version="1.0" standalone="no"?><!DOCTYPE svg PUBLIC "-//W3C//DTD SVG 1.1//EN" "http://www.w3.org/Graphics/SVG/1.1/DTD/svg11.dtd"><svg t="1595340425721" class="icon" viewBox="0 0 1024 1024" version="1.1" xmlns="http://www.w3.org/2000/svg" p-id="99145" xmlns:xlink="http://www.w3.org/1999/xlink" width="300" height="300"><defs><style type="text/css"></style></defs><path d="M512 691.2c-17.066667 0-29.866667-4.266667-42.666667-17.066667L51.2 426.666667c-25.6-25.6-25.6-64 0-89.6l4.266667-4.266667L469.333333 93.866667c25.6-21.333333 59.733333-21.333333 85.333334 0L972.8 341.333333c25.6 25.6 25.6 64 0 89.6l-4.266667 4.266667-413.866666 238.933333c-12.8 12.8-25.6 17.066667-42.666667 17.066667zM81.066667 396.8l418.133333 247.466667c8.533333 8.533333 21.333333 8.533333 29.866667 0l4.266666-4.266667 413.866667-243.2c4.266667-8.533333 4.266667-17.066667 0-25.6l-418.133333-247.466667c-8.533333-8.533333-21.333333-8.533333-29.866667 0l-8.533333 4.266667-409.6 243.2c-8.533333 8.533333-8.533333 17.066667 0 25.6z" fill="#5469d4" p-id="99146"></path><path d="M512 819.2c-17.066667 0-29.866667-4.266667-42.666667-17.066667l-413.866666-243.2 21.333333-38.4 418.133333 247.466667c8.533333 8.533333 21.333333 8.533333 29.866667 0l4.266667-4.266667 413.866666-243.2 21.333334 38.4-409.6 243.2c-12.8 12.8-25.6 17.066667-42.666667 17.066667z" fill="#5469d4" p-id="99147"></path><path d="M512 947.2c-17.066667 0-29.866667-4.266667-42.666667-17.066667l-413.866666-243.2 21.333333-38.4 418.133333 247.466667c8.533333 8.533333 21.333333 8.533333 29.866667 0l4.266667-4.266667 413.866666-243.2 21.333334 38.4-409.6 243.2c-12.8 12.8-25.6 17.066667-42.666667 17.066667z" fill="#5469d4" p-id="99148"></path></svg>